/* XPM */
static char *_0a6e08cb7c94c09bd5bb6ba6ac4710dhe4NhLu5v0SKGm10[] = {
/* columns rows colors chars-per-pixel */
"64 64 10 1 ",
"  c #C0D470",
". c #4C468B",
"X c #555793",
"o c #5F699C",
"O c #7180B1",
"+ c #8599C7",
"@ c #B4C8C6",
"# c #CBE0DE",
"$ c #DCE0D2",
"% c #F3F4E7",
/* pixels */
"                                                                ",
"                                                                ",
"                                                                ",
"                                                                ",
"                    %%%%%%%%%%%%%%%%%%%%%%%%                    ",
"                    %%%%%%%%%%%%%%%%%%%%%%%%                    ",
"                    %%%%%%%%%%%%%%%%%%%%%%%%                    ",
"                    %%%%%%%%%%%%%%%%%%%%%%%%                    ",
"                %%%%XXXXXXXXXXXXXXXXXXXX....%%%%                ",
"                %%%%XXXXXXXXXXXXXXXXXXXX....%%%%                ",
"                %%%%XXXXXXXXXXXXXXXXXXXX....%%%%                ",
"                %%%%XXXXXXXXXXXXXXXXXXXX....%%%%                ",
"            %%%%XXXX++++++++++++++++OOOOOOOO....%%%%            ",
"            %%%%XXXX++++++++++++++++OOOOOOOO....%%%%            ",
"            %%%%XXXX++++++++++++++++OOOOOOOO....%%%%            ",
"            %%%%XXXX++++++++++++++++OOOOOOOO....%%%%            ",
"                %%%%........................%%%%                ",
"                %%%%........................%%%%                ",
"                %%%%........................%%%%                ",
"                %%%%........................%%%%                ",
"            %%%%++++####%%%%############@@@@++++%%%%            ",
"            %%%%++++####%%%%############@@@@++++%%%%            ",
"            %%%%++++####%%%%############@@@@++++%%%%            ",
"            %%%%++++####%%%%############@@@@++++%%%%            ",
"            %%%%++++%%%%################@@@@++++%%%%            ",
"            %%%%++++%%%%################@@@@++++%%%%            ",
"            %%%%++++%%%%################@@@@++++%%%%            ",
"            %%%%++++%%%%################@@@@++++%%%%            ",
"            %%%%++++####################@@@@++++%%%%            ",
"            %%%%++++####################@@@@++++%%%%            ",
"            %%%%++++####################@@@@++++%%%%            ",
"            %%%%++++####################@@@@++++%%%%            ",
"        %%%%++++%%%%%%%%%%%%%%%%%%%%%%%%$$$$$$$$OOOO%%%%        ",
"        %%%%++++%%%%%%%%%%%%%%%%%%%%%%%%$$$$$$$$OOOO%%%%        ",
"        %%%%++++%%%%%%%%%%%%%%%%%%%%%%%%$$$$$$$$OOOO%%%%        ",
"        %%%%++++%%%%%%%%%%%%%%%%%%%%%%%%$$$$$$$$OOOO%%%%        ",
"        %%%%++++%%%%%%%%%%%%%%%%%%%%%%%%$$$$$$$$OOOO%%%%        ",
"        %%%%++++%%%%%%%%%%%%%%%%%%%%%%%%$$$$$$$$OOOO%%%%        ",
"        %%%%++++%%%%%%%%%%%%%%%%%%%%%%%%$$$$$$$$OOOO%%%%        ",
"        %%%%++++%%%%%%%%%%%%%%%%%%%%%%%%$$$$$$$$OOOO%%%%        ",
"        %%%%OOOO%%%%%%%%%%%%%%%%%%%%%%%%$$$$$$$$oooo%%%%        ",
"        %%%%OOOO%%%%%%%%%%%%%%%%%%%%%%%%$$$$$$$$oooo%%%%        ",
"        %%%%OOOO%%%%%%%%%%%%%%%%%%%%%%%%$$$$$$$$oooo%%%%        ",
"        %%%%OOOO%%%%%%%%%%%%%%%%%%%%%%%%$$$$$$$$oooo%%%%        ",
"        %%%%OOOO%%%%%%%%%%%%%%%%%%%%%%%%$$$$$$$$oooo%%%%        ",
"        %%%%OOOO%%%%%%%%%%%%%%%%%%%%%%%%$$$$$$$$oooo%%%%        ",
"        %%%%OOOO%%%%%%%%%%%%%%%%%%%%%%%%$$$$$$$$oooo%%%%        ",
"        %%%%OOOO%%%%%%%%%%%%%%%%%%%%%%%%$$$$$$$$oooo%%%%        ",
"        %%%%OOOO%%%%%%%%%%%%%%%%%%%%$$$$$$$$$$$$oooo%%%%        ",
"        %%%%OOOO%%%%%%%%%%%%%%%%%%%%$$$$$$$$$$$$oooo%%%%        ",
"        %%%%OOOO%%%%%%%%%%%%%%%%%%%%$$$$$$$$$$$$oooo%%%%        ",
"        %%%%OOOO%%%%%%%%%%%%%%%%%%%%$$$$$$$$$$$$oooo%%%%        ",
"        %%%%oooo%%%%%%%%$$$$$$$$$$$$$$$$$$$$$$$$oooo%%%%        ",
"        %%%%oooo%%%%%%%%$$$$$$$$$$$$$$$$$$$$$$$$oooo%%%%        ",
"        %%%%oooo%%%%%%%%$$$$$$$$$$$$$$$$$$$$$$$$oooo%%%%        ",
"        %%%%oooo%%%%%%%%$$$$$$$$$$$$$$$$$$$$$$$$oooo%%%%        ",
"            %%%%oooooooooooooooooooooooooooooooo%%%%            ",
"            %%%%oooooooooooooooooooooooooooooooo%%%%            ",
"            %%%%oooooooooooooooooooooooooooooooo%%%%            ",
"            %%%%oooooooooooooooooooooooooooooooo%%%%            ",
"                %%%%%%%%%%%%%%%%%%%%%%%%%%%%%%%%                ",
"                %%%%%%%%%%%%%%%%%%%%%%%%%%%%%%%%                ",
"                %%%%%%%%%%%%%%%%%%%%%%%%%%%%%%%%                ",
"                %%%%%%%%%%%%%%%%%%%%%%%%%%%%%%%%                "
};
