/* XPM */
static char *_f95bce7f6594f8a9790d496f141663cANXosLOJgjis1zzS[] = {
/* columns rows colors chars-per-pixel */
"64 64 7 1 ",
"  c None",
". c #754C60",
"X c #90625D",
"o c #AA7959",
"O c #C49A6C",
"+ c #DCB98A",
"@ c #E8CFA6",
/* pixels */
"........                    ........                    ........",
"........                    ........                    ........",
"........                    ........                    ........",
"........                    ........                    ........",
"OOOOOOOO....        ........OOOOOOOO....            ....OOOOOOOO",
"OOOOOOOO....        ........OOOOOOOO....            ....OOOOOOOO",
"OOOOOOOO....        ........OOOOOOOO....            ....OOOOOOOO",
"OOOOOOOO....        ........OOOOOOOO....            ....OOOOOOOO",
"OOOOOOOO............OOOOOOOOXXXXXXXX....            ....OOOOOOOO",
"OOOOOOOO............OOOOOOOOXXXXXXXX....            ....OOOOOOOO",
"OOOOOOOO............OOOOOOOOXXXXXXXX....            ....OOOOOOOO",
"OOOOOOOO............OOOOOOOOXXXXXXXX....            ....OOOOOOOO",
"OOOOOOOO....OOOOOOOOXXXXXXXXXXXXXXXX....            ....OOOOOOOO",
"OOOOOOOO....OOOOOOOOXXXXXXXXXXXXXXXX....            ....OOOOOOOO",
"OOOOOOOO....OOOOOOOOXXXXXXXXXXXXXXXX....            ....OOOOOOOO",
"OOOOOOOO....OOOOOOOOXXXXXXXXXXXXXXXX....            ....OOOOOOOO",
"++++++++....XXXXXXXXXXXXXXXXooooXXXX....            ....++++++++",
"++++++++....XXXXXXXXXXXXXXXXooooXXXX....            ....++++++++",
"++++++++....XXXXXXXXXXXXXXXXooooXXXX....            ....++++++++",
"++++++++....XXXXXXXXXXXXXXXXooooXXXX....            ....++++++++",
"oooooooo....XXXXXXXXXXXXXXXXooooXXXX....            ....oooooooo",
"oooooooo....XXXXXXXXXXXXXXXXooooXXXX....            ....oooooooo",
"oooooooo....XXXXXXXXXXXXXXXXooooXXXX....            ....oooooooo",
"oooooooo....XXXXXXXXXXXXXXXXooooXXXX....            ....oooooooo",
"oooooooo....XXXXooooXXXXXXXXooooXXXX....            ....oooooooo",
"oooooooo....XXXXooooXXXXXXXXooooXXXX....            ....oooooooo",
"oooooooo....XXXXooooXXXXXXXXooooXXXX....            ....oooooooo",
"oooooooo....XXXXooooXXXXXXXXooooXXXX....            ....oooooooo",
"XXXXXXXX....XXXXooooXXXXXXXXoooo@@@@....            ....XXXXXXXX",
"XXXXXXXX....XXXXooooXXXXXXXXoooo@@@@....            ....XXXXXXXX",
"XXXXXXXX....XXXXooooXXXXXXXXoooo@@@@....            ....XXXXXXXX",
"XXXXXXXX....XXXXooooXXXXXXXXoooo@@@@....            ....XXXXXXXX",
"oooooooo....XXXXooooXXXXXXXX@@@@XXXX....            ....oooooooo",
"oooooooo....XXXXooooXXXXXXXX@@@@XXXX....            ....oooooooo",
"oooooooo....XXXXooooXXXXXXXX@@@@XXXX....            ....oooooooo",
"oooooooo....XXXXooooXXXXXXXX@@@@XXXX....            ....oooooooo",
"oooooooo....XXXXooooXXXXXXXXooooXXXX....            ....oooooooo",
"oooooooo....XXXXooooXXXXXXXXooooXXXX....            ....oooooooo",
"oooooooo....XXXXooooXXXXXXXXooooXXXX....            ....oooooooo",
"oooooooo....XXXXooooXXXXXXXXooooXXXX....            ....oooooooo",
"oooooooo....XXXXooooXXXXXXXXooooXXXX....            ....oooooooo",
"oooooooo....XXXXooooXXXXXXXXooooXXXX....            ....oooooooo",
"oooooooo....XXXXooooXXXXXXXXooooXXXX....            ....oooooooo",
"oooooooo....XXXXooooXXXXXXXXooooXXXX....            ....oooooooo",
"XXXXXXXX....XXXXooooXXXXXXXXXXXXXXXX....            ....XXXXXXXX",
"XXXXXXXX....XXXXooooXXXXXXXXXXXXXXXX....            ....XXXXXXXX",
"XXXXXXXX....XXXXooooXXXXXXXXXXXXXXXX....            ....XXXXXXXX",
"XXXXXXXX....XXXXooooXXXXXXXXXXXXXXXX....            ....XXXXXXXX",
"oooooooo....XXXXooooXXXXXXXXXXXXXXXX....            ....oooooooo",
"oooooooo....XXXXooooXXXXXXXXXXXXXXXX....            ....oooooooo",
"oooooooo....XXXXooooXXXXXXXXXXXXXXXX....            ....oooooooo",
"oooooooo....XXXXooooXXXXXXXXXXXXXXXX....            ....oooooooo",
"oooooooo....XXXXXXXXXXXXXXXX........                ....oooooooo",
"oooooooo....XXXXXXXXXXXXXXXX........                ....oooooooo",
"oooooooo....XXXXXXXXXXXXXXXX........                ....oooooooo",
"oooooooo....XXXXXXXXXXXXXXXX........                ....oooooooo",
"oooooooo....XXXXXXXX........                        ....oooooooo",
"oooooooo....XXXXXXXX........                        ....oooooooo",
"oooooooo....XXXXXXXX........                        ....oooooooo",
"oooooooo....XXXXXXXX........                        ....oooooooo",
"....................                                ............",
"....................                                ............",
"....................                                ............",
"....................                                ............"
};
