/* XPM */
static char *result[] = {
/* columns rows colors chars-per-pixel */
"64 64 13 1 ",
"  c #754C60",
". c #90625D",
"X c #AA7959",
"o c #C49A6C",
"O c #EAE178",
"+ c #5C4E92",
"@ c #766DAA",
"# c #DCB98A",
"$ c #E8B5AC",
"% c #DDD5DE",
"& c #F3D8C5",
"* c #F3F2C0",
"= c None",
/* pixels */
"        ====++++++++++++================++++++++++++====        ",
"        ====++++++++++++================++++++++++++====        ",
"        ====++++++++++++================++++++++++++====        ",
"        ====++++++++++++================++++++++++++====        ",
"oooooooo++++************++++========++++************++++oooooooo",
"oooooooo++++************++++========++++************++++oooooooo",
"oooooooo++++************++++========++++************++++oooooooo",
"oooooooo++++************++++========++++************++++oooooooo",
"oooooooo++++$$$$$$$$****++++++++++++++++****$$$$$$$$++++oooooooo",
"oooooooo++++$$$$$$$$****++++++++++++++++****$$$$$$$$++++oooooooo",
"oooooooo++++$$$$$$$$****++++++++++++++++****$$$$$$$$++++oooooooo",
"oooooooo++++$$$$$$$$****++++++++++++++++****$$$$$$$$++++oooooooo",
"oooooooo++++$$$$$$$$****%%%%%%%%%%%%%%%%****$$$$$$$$++++oooooooo",
"oooooooo++++$$$$$$$$****%%%%%%%%%%%%%%%%****$$$$$$$$++++oooooooo",
"oooooooo++++$$$$$$$$****%%%%%%%%%%%%%%%%****$$$$$$$$++++oooooooo",
"oooooooo++++$$$$$$$$****%%%%%%%%%%%%%%%%****$$$$$$$$++++oooooooo",
"########++++************%%%%%%%%%%%%%%%%************++++########",
"########++++************%%%%%%%%%%%%%%%%************++++########",
"########++++************%%%%%%%%%%%%%%%%************++++########",
"########++++************%%%%%%%%%%%%%%%%************++++########",
"XXXXXXXX++++************%%%%%%%%%%%%%%%%************++++XXXXXXXX",
"XXXXXXXX++++************%%%%%%%%%%%%%%%%************++++XXXXXXXX",
"XXXXXXXX++++************%%%%%%%%%%%%%%%%************++++XXXXXXXX",
"XXXXXXXX++++************%%%%%%%%%%%%%%%%************++++XXXXXXXX",
"XXXX++++++++****************************************++++++++XXXX",
"XXXX++++++++****************************************++++++++XXXX",
"XXXX++++++++****************************************++++++++XXXX",
"XXXX++++++++****************************************++++++++XXXX",
"........++++****++++************************++++****++++........",
"........++++****++++************************++++****++++........",
"........++++****++++************************++++****++++........",
"........++++****++++************************++++****++++........",
"XXXX++++++++****************************************++++++++XXXX",
"XXXX++++++++****************************************++++++++XXXX",
"XXXX++++++++****************************************++++++++XXXX",
"XXXX++++++++****************************************++++++++XXXX",
"XXXXXXXX++++&&&&&&&&************************&&&&&&&&++++XXXXXXXX",
"XXXXXXXX++++&&&&&&&&************************&&&&&&&&++++XXXXXXXX",
"XXXXXXXX++++&&&&&&&&************************&&&&&&&&++++XXXXXXXX",
"XXXXXXXX++++&&&&&&&&************************&&&&&&&&++++XXXXXXXX",
"XXXXXXXX    ++++++++@@@@@@@@@@@@@@@@@@@@@@@@++++++++    XXXXXXXX",
"XXXXXXXX    ++++++++@@@@@@@@@@@@@@@@@@@@@@@@++++++++    XXXXXXXX",
"XXXXXXXX    ++++++++@@@@@@@@@@@@@@@@@@@@@@@@++++++++    XXXXXXXX",
"XXXXXXXX    ++++++++@@@@@@@@@@@@@@@@@@@@@@@@++++++++    XXXXXXXX",
"........++++%%%%****@@@@@@@@OOOO****@@@@@@@@****%%%%++++........",
"........++++%%%%****@@@@@@@@OOOO****@@@@@@@@****%%%%++++........",
"........++++%%%%****@@@@@@@@OOOO****@@@@@@@@****%%%%++++........",
"........++++%%%%****@@@@@@@@OOOO****@@@@@@@@****%%%%++++........",
"XXXXXXXX++++%%%%************OOOOOOOO************%%%%++++XXXXXXXX",
"XXXXXXXX++++%%%%************OOOOOOOO************%%%%++++XXXXXXXX",
"XXXXXXXX++++%%%%************OOOOOOOO************%%%%++++XXXXXXXX",
"XXXXXXXX++++%%%%************OOOOOOOO************%%%%++++XXXXXXXX",
"XXXXXXXX    ++++++++************************++++++++    XXXXXXXX",
"XXXXXXXX    ++++++++************************++++++++    XXXXXXXX",
"XXXXXXXX    ++++++++************************++++++++    XXXXXXXX",
"XXXXXXXX    ++++++++************************++++++++    XXXXXXXX",
"XXXXXXXX    ....++++%%%%%%%%++++++++%%%%%%%%++++....    XXXXXXXX",
"XXXXXXXX    ....++++%%%%%%%%++++++++%%%%%%%%++++....    XXXXXXXX",
"XXXXXXXX    ....++++%%%%%%%%++++++++%%%%%%%%++++....    XXXXXXXX",
"XXXXXXXX    ....++++%%%%%%%%++++++++%%%%%%%%++++....    XXXXXXXX",
"                    ++++++++        ++++++++                    ",
"                    ++++++++        ++++++++                    ",
"                    ++++++++        ++++++++                    ",
"                    ++++++++        ++++++++                    "
};
